<svg width="86" height="87" viewBox="0 0 86 87" fill="none" xmlns="http://www.w3.org/2000/svg">
<rect y="0.5" width="86" height="86" rx="43" fill="#BDCFF5"/>
<circle cx="43" cy="43.5" r="25" fill="white"/>
<path d="M43 10.5C36.4732 10.5 30.093 12.4354 24.6662 16.0615C19.2394 19.6876 15.0097 24.8415 12.512 30.8714C10.0143 36.9014 9.36079 43.5366 10.6341 49.938C11.9074 56.3394 15.0504 62.2194 19.6655 66.8345C24.2806 71.4497 30.1607 74.5926 36.562 75.8659C42.9634 77.1392 49.5986 76.4857 55.6286 73.988C61.6585 71.4903 66.8124 67.2606 70.4385 61.8338C74.0646 56.407 76 50.0268 76 43.5C76 34.7479 72.5232 26.3542 66.3345 20.1655C60.1458 13.9768 51.7522 10.5 43 10.5ZM60.121 36.621L39.121 57.621C38.5584 58.1834 37.7955 58.4994 37 58.4994C36.2045 58.4994 35.4416 58.1834 34.879 57.621L25.879 48.621C25.3325 48.0552 25.0302 47.2974 25.037 46.5108C25.0438 45.7242 25.3593 44.9718 25.9156 44.4155C26.4718 43.8593 27.2242 43.5438 28.0108 43.537C28.7974 43.5301 29.5552 43.8325 30.121 44.379L37 51.258L55.879 32.379C56.4448 31.8325 57.2026 31.5301 57.9892 31.537C58.7758 31.5438 59.5282 31.8593 60.0845 32.4155C60.6407 32.9718 60.9562 33.7242 60.963 34.5108C60.9699 35.2974 60.6675 36.0552 60.121 36.621Z" fill="#2764EB"/>
</svg>
