<svg width="28" height="29" viewBox="0 0 28 29" fill="none" xmlns="http://www.w3.org/2000/svg">
<path d="M23.5375 8.53906H19.8461L17.6367 6.30781C17.6367 6.30781 17.6258 6.29688 17.6203 6.29688L17.6094 6.28594C17.2812 5.95781 16.8383 5.75 16.3352 5.75H11.7414C11.2055 5.75 10.7297 5.97969 10.3961 6.34609V6.35156L8.23594 8.53906H4.4625C3.44531 8.53906 2.625 9.3375 2.625 10.3547V21.407C2.625 22.4242 3.44531 23.25 4.4625 23.25H23.5375C24.5492 23.25 25.375 22.4242 25.375 21.407V10.3547C25.375 9.3375 24.5492 8.53906 23.5375 8.53906ZM14 20.4883C11.2164 20.4883 8.94688 18.2133 8.94688 15.4242C8.94688 12.6297 11.2164 10.3602 14 10.3602C16.7891 10.3602 19.0531 12.6297 19.0531 15.4242C19.0531 18.2133 16.7891 20.4883 14 20.4883ZM23.193 11.4648C22.7719 11.4648 22.4273 11.1203 22.4273 10.6937C22.4273 10.2672 22.7719 9.92266 23.193 9.92266C23.6141 9.92266 23.9586 10.2672 23.9586 10.6937C23.9586 11.1203 23.6141 11.4648 23.193 11.4648Z" fill="#2764EB"/>
<path d="M14 11.5962C11.8891 11.5962 10.1829 13.3079 10.1829 15.4243C10.1829 17.5353 11.8891 19.2524 14 19.2524C16.1055 19.2524 17.8172 17.5407 17.8172 15.4243C17.8172 13.3079 16.1055 11.5962 14 11.5962Z" fill="#2764EB"/>
</svg>
