<svg width="20" height="20" viewBox="0 0 20 20" fill="none" xmlns="http://www.w3.org/2000/svg">
<g clip-path="url(#clip0_585_269)">
<path d="M9.99992 0.833374C8.18693 0.833374 6.41465 1.37099 4.9072 2.37824C3.39974 3.38548 2.22483 4.81712 1.53103 6.49211C0.837224 8.1671 0.655693 10.0102 1.00939 11.7884C1.36309 13.5665 2.23613 15.1999 3.51811 16.4819C4.80009 17.7638 6.43344 18.6369 8.21159 18.9906C9.98975 19.3443 11.8329 19.1627 13.5079 18.4689C15.1828 17.7751 16.6145 16.6002 17.6217 15.0928C18.629 13.5853 19.1666 11.813 19.1666 10C19.1666 7.56889 18.2008 5.23731 16.4817 3.51823C14.7627 1.79915 12.4311 0.833374 9.99992 0.833374ZM14.7558 8.08921L8.92242 13.9225C8.76615 14.0788 8.55423 14.1665 8.33326 14.1665C8.11229 14.1665 7.90036 14.0788 7.74409 13.9225L5.24409 11.4225C5.09229 11.2654 5.0083 11.0549 5.01019 10.8364C5.01209 10.6179 5.09973 10.4089 5.25424 10.2544C5.40875 10.0999 5.61776 10.0122 5.83625 10.0103C6.05475 10.0084 6.26525 10.0924 6.42242 10.2442L8.33326 12.155L13.5774 6.91087C13.7346 6.75908 13.9451 6.67508 14.1636 6.67698C14.3821 6.67888 14.5911 6.76652 14.7456 6.92103C14.9001 7.07553 14.9878 7.28454 14.9897 7.50304C14.9916 7.72154 14.9076 7.93204 14.7558 8.08921Z" fill="#2764EB"/>
</g>
<defs>
<clipPath id="clip0_585_269">
<rect width="20" height="20" fill="white"/>
</clipPath>
</defs>
</svg>
