<svg width="41" height="17" viewBox="0 0 41 17" fill="none" xmlns="http://www.w3.org/2000/svg">
<path fill-rule="evenodd" clip-rule="evenodd" d="M31.6641 16.8359H8.33593C3.7325 16.8359 0 13.1034 0 8.49999C0 3.89657 3.7325 0.164062 8.33593 0.164062H31.6848C36.2882 0.164062 40.0207 3.89657 40.0207 8.49999C40.0207 13.1034 36.2675 16.8359 31.6641 16.8359Z" fill="#FFEB00"/>
<path fill-rule="evenodd" clip-rule="evenodd" d="M9.352 4.16602C6.84293 4.16602 4.81079 5.7627 4.81079 7.75337C4.81079 9.01827 5.66097 10.138 6.92588 10.7808L6.49042 12.3983C6.46968 12.4397 6.49042 12.5019 6.53189 12.5434C6.55263 12.5641 6.5941 12.5849 6.61483 12.5849C6.63557 12.5849 6.67704 12.5641 6.69778 12.5641L8.54329 11.32C8.81286 11.3615 9.08243 11.3822 9.37274 11.3822C11.8818 11.3822 13.914 9.76477 13.914 7.79484C13.914 5.7627 11.8818 4.16602 9.352 4.16602Z" fill="black"/>
<path d="M17.7502 10.7397V13.0622H16.0913V4.49815H17.2525L17.4599 5.03729C17.8124 4.68477 18.3515 4.31152 19.2017 4.31152C20.8191 4.31152 21.5864 5.51422 21.5864 7.48415C21.5864 9.53703 20.4044 10.8434 18.7041 10.8434C18.3723 10.8641 18.1234 10.8434 17.7502 10.7397ZM17.7502 5.88747V9.5785C17.8331 9.59924 18.0612 9.61997 18.2893 9.61997C19.4713 9.61997 19.9275 8.79053 19.9275 7.48415C19.9275 6.34366 19.6165 5.65937 18.6833 5.65937C18.3515 5.65937 18.0198 5.74232 17.7502 5.88747Z" fill="black"/>
<path d="M25.1736 6.92431H26.1067V6.71695C26.1067 6.03265 25.7127 5.72161 25.0492 5.72161C24.5308 5.72161 23.8879 5.86676 23.3488 6.13633L22.8926 5.03732C23.4732 4.6226 24.3856 4.35303 25.1943 4.35303C26.7703 4.35303 27.6412 5.18247 27.6412 6.77916V10.6983H26.48L26.3141 10.1799C25.6505 10.6568 25.0284 10.8642 24.4893 10.8642C23.2866 10.8642 22.6023 10.1384 22.6023 8.91498C22.6023 7.6086 23.4939 6.92431 25.1736 6.92431ZM26.1274 9.1016V7.96111H25.3602C24.51 7.96111 24.0746 8.27216 24.0746 8.8735C24.0746 9.3297 24.3027 9.5578 24.8003 9.5578C25.2565 9.57853 25.8371 9.35044 26.1274 9.1016Z" fill="black"/>
<path d="M32.6594 10.0554C32.0788 11.5899 31.3945 12.7096 30.3785 13.3317L29.3624 12.3986C29.943 11.8802 30.3785 11.3825 30.731 10.719L28.533 4.72621L30.1711 4.29076L31.5812 9.14301L32.9705 4.27002L34.5879 4.72621L32.6594 10.0554Z" fill="black"/>
</svg>
