<svg width="288" height="48" viewBox="0 0 288 48" fill="none" xmlns="http://www.w3.org/2000/svg">
<rect x="0.5" y="0.5" width="287" height="47" rx="7.5" fill="#FFE919"/>
<rect x="0.5" y="0.5" width="287" height="47" rx="7.5" stroke="#E8D51F"/>
<g clip-path="url(#clip0_446_936)">
<path d="M95.5 35.8125C95.5 37.0207 94.5207 38 93.3125 38H69.6875C68.4793 38 67.5 37.0207 67.5 35.8125V12.1875C67.5 10.9793 68.4793 10 69.6875 10H93.3125C94.5207 10 95.5 10.9793 95.5 12.1875V35.8125Z" fill="#FFE812"/>
<path d="M81.5 13.9375C75.2177 13.9375 70.125 17.953 70.125 22.9062C70.125 26.1086 72.2541 28.9186 75.4568 30.5053C75.2826 31.1062 74.3371 34.371 74.2995 34.6275C74.2995 34.6275 74.2769 34.8203 74.4017 34.8938C74.5265 34.9673 74.6733 34.9102 74.6733 34.9102C75.0311 34.8602 78.8233 32.1965 79.4796 31.7339C80.1353 31.8268 80.8105 31.875 81.5 31.875C87.7823 31.875 92.875 27.8596 92.875 22.9062C92.875 17.953 87.7823 13.9375 81.5 13.9375Z" fill="#1A1A1A"/>
<path d="M75.2109 26.0371C74.849 26.0371 74.5547 25.756 74.5547 25.4104V21.5117H73.5307C73.1756 21.5117 72.8867 21.2234 72.8867 20.8691C72.8867 20.5149 73.1757 20.2266 73.5307 20.2266H76.8912C77.2463 20.2266 77.5352 20.5149 77.5352 20.8691C77.5352 21.2234 77.2462 21.5117 76.8912 21.5117H75.8672V25.4104C75.8672 25.756 75.5729 26.0371 75.2109 26.0371ZM80.9654 26.0286C80.6917 26.0286 80.4824 25.9175 80.4193 25.7387L80.0943 24.888L78.0932 24.8879L77.768 25.7392C77.7051 25.9176 77.4959 26.0286 77.2222 26.0286C77.0783 26.0287 76.936 25.9978 76.8051 25.938C76.6242 25.8546 76.4503 25.6251 76.6495 25.0061L78.2193 20.8744C78.3299 20.5602 78.6658 20.2364 79.0932 20.2267C79.5218 20.2363 79.8577 20.5602 79.9685 20.875L81.5376 25.0049C81.7373 25.6253 81.5634 25.8549 81.3825 25.9381C81.2516 25.9978 81.1093 26.0287 80.9654 26.0286ZM79.7492 23.7256L79.0938 21.8635L78.4383 23.7256H79.7492ZM82.5938 25.9414C82.2469 25.9414 81.9648 25.6715 81.9648 25.3398V20.8828C81.9648 20.5209 82.2654 20.2266 82.6348 20.2266C83.0041 20.2266 83.3047 20.5209 83.3047 20.8828V24.7383H84.6992C85.046 24.7383 85.3281 25.0082 85.3281 25.3398C85.3281 25.6715 85.046 25.9414 84.6992 25.9414H82.5938ZM86.2397 26.0286C85.8777 26.0286 85.5834 25.7342 85.5834 25.3723V20.8828C85.5834 20.5209 85.8777 20.2266 86.2397 20.2266C86.6016 20.2266 86.8959 20.5209 86.8959 20.8828V22.2933L88.7268 20.4624C88.821 20.3682 88.9504 20.3164 89.0908 20.3164C89.2547 20.3164 89.4192 20.387 89.5425 20.5102C89.6574 20.625 89.726 20.7728 89.7354 20.9262C89.7449 21.081 89.6934 21.2229 89.5906 21.3258L88.0951 22.821L89.7105 24.9611C89.7626 25.0297 89.8006 25.1081 89.8222 25.1915C89.8439 25.275 89.8487 25.3619 89.8365 25.4472C89.8248 25.5326 89.7962 25.6149 89.7525 25.6892C89.7088 25.7635 89.6508 25.8283 89.5818 25.88C89.4683 25.9663 89.3296 26.0128 89.1871 26.0125C89.0854 26.013 88.985 25.9896 88.894 25.9443C88.803 25.899 88.7238 25.833 88.6629 25.7516L87.1238 23.7125L86.8961 23.9402V25.372C86.8959 25.5461 86.8267 25.7129 86.7036 25.836C86.5806 25.9591 86.4137 26.0283 86.2397 26.0286Z" fill="#FFE812"/>
</g>
<path d="M107.756 18.016H109.82C109.82 19.168 109.729 20.2667 109.548 21.312C109.377 22.3573 109.057 23.3493 108.588 24.288C108.119 25.2267 107.452 26.1067 106.588 26.928C105.724 27.7493 104.599 28.512 103.212 29.216L102.076 27.584C103.228 27.008 104.172 26.3947 104.908 25.744C105.655 25.0827 106.231 24.3787 106.636 23.632C107.052 22.8747 107.34 22.0533 107.5 21.168C107.671 20.2827 107.756 19.3227 107.756 18.288V18.016ZM103.004 18.016H109.004V19.712H103.004V18.016ZM107.804 21.648V23.28L102.492 23.792L102.22 21.984L107.804 21.648ZM111.612 16.576H113.756V31.392H111.612V16.576ZM113.212 22.256H115.82V24H113.212V22.256ZM122.075 18.016H124.139C124.139 19.168 124.048 20.2667 123.867 21.312C123.696 22.3573 123.376 23.3493 122.907 24.288C122.437 25.2267 121.771 26.1067 120.907 26.928C120.043 27.7493 118.917 28.512 117.531 29.216L116.395 27.584C117.547 27.008 118.491 26.3947 119.227 25.744C119.973 25.0827 120.549 24.3787 120.955 23.632C121.371 22.8747 121.659 22.0533 121.819 21.168C121.989 20.2827 122.075 19.3227 122.075 18.288V18.016ZM117.323 18.016H123.323V19.712H117.323V18.016ZM122.123 21.648V23.28L116.811 23.792L116.539 21.984L122.123 21.648ZM125.931 16.576H128.075V31.392H125.931V16.576ZM127.531 22.256H130.139V24H127.531V22.256ZM136.426 24.928H138.538V28.304H136.426V24.928ZM137.482 17.36C138.538 17.36 139.482 17.5307 140.314 17.872C141.156 18.2027 141.818 18.672 142.298 19.28C142.778 19.888 143.018 20.608 143.018 21.44C143.018 22.2613 142.778 22.9813 142.298 23.6C141.818 24.2187 141.156 24.6987 140.314 25.04C139.482 25.3707 138.538 25.536 137.482 25.536C136.436 25.536 135.492 25.3707 134.65 25.04C133.818 24.6987 133.156 24.2187 132.666 23.6C132.186 22.9813 131.946 22.2613 131.946 21.44C131.946 20.608 132.186 19.888 132.666 19.28C133.156 18.672 133.818 18.2027 134.65 17.872C135.492 17.5307 136.436 17.36 137.482 17.36ZM137.482 19.04C136.81 19.04 136.212 19.136 135.69 19.328C135.178 19.52 134.772 19.792 134.474 20.144C134.186 20.496 134.042 20.928 134.042 21.44C134.042 21.9413 134.186 22.3733 134.474 22.736C134.772 23.088 135.178 23.36 135.69 23.552C136.212 23.744 136.81 23.84 137.482 23.84C138.164 23.84 138.762 23.744 139.274 23.552C139.796 23.36 140.202 23.088 140.49 22.736C140.778 22.3733 140.922 21.9413 140.922 21.44C140.922 20.928 140.778 20.496 140.49 20.144C140.202 19.792 139.796 19.52 139.274 19.328C138.762 19.136 138.164 19.04 137.482 19.04ZM130.794 27.968H144.218V29.696H130.794V27.968ZM145.112 28.064H158.536V29.792H145.112V28.064ZM150.744 25.248H152.856V28.752H150.744V25.248ZM146.632 17.552H157.016V22.496H148.76V24.976H146.648V20.832H154.904V19.248H146.632V17.552ZM146.648 24.144H157.352V25.84H146.648V24.144ZM166.6 17.744H168.344V19.888C168.344 20.848 168.258 21.7707 168.088 22.656C167.917 23.5307 167.656 24.352 167.304 25.12C166.962 25.8773 166.52 26.5493 165.976 27.136C165.442 27.712 164.808 28.1707 164.072 28.512L162.808 26.752C163.458 26.464 164.018 26.0853 164.488 25.616C164.968 25.136 165.362 24.592 165.672 23.984C165.981 23.3653 166.21 22.7093 166.36 22.016C166.52 21.3227 166.6 20.6133 166.6 19.888V17.744ZM167.016 17.744H168.744V19.888C168.744 20.5813 168.818 21.2587 168.968 21.92C169.117 22.5813 169.341 23.2053 169.64 23.792C169.949 24.3787 170.333 24.9013 170.792 25.36C171.261 25.808 171.81 26.1653 172.44 26.432L171.208 28.16C170.493 27.8293 169.869 27.3867 169.336 26.832C168.813 26.2773 168.381 25.6373 168.04 24.912C167.698 24.176 167.442 23.3867 167.272 22.544C167.101 21.6907 167.016 20.8053 167.016 19.888V17.744ZM173.16 16.576H175.288V31.44H173.16V16.576ZM180.614 18.112H182.358V19.04C182.358 19.9787 182.204 20.864 181.894 21.696C181.596 22.528 181.137 23.2587 180.518 23.888C179.91 24.5067 179.137 24.9707 178.198 25.28L177.094 23.632C177.916 23.3547 178.582 22.976 179.094 22.496C179.617 22.016 180.001 21.4773 180.246 20.88C180.492 20.272 180.614 19.6587 180.614 19.04V18.112ZM181.03 18.112H182.758V19.04C182.758 19.616 182.876 20.192 183.11 20.768C183.345 21.3333 183.713 21.8453 184.214 22.304C184.726 22.752 185.377 23.104 186.166 23.36L185.094 25.024C184.166 24.7253 183.404 24.272 182.806 23.664C182.209 23.056 181.761 22.3573 181.462 21.568C181.174 20.768 181.03 19.9253 181.03 19.04V18.112ZM177.654 17.472H185.67V19.168H177.654V17.472ZM186.838 16.608H188.966V25.52H186.838V16.608ZM188.39 20.176H190.934V21.936H188.39V20.176ZM179.078 26.176H188.966V31.424H186.838V27.872H179.078V26.176ZM201.125 16.608H203.253V31.424H201.125V16.608ZM202.773 22.384H205.381V24.144H202.773V22.384ZM191.557 18.784H200.197V20.48H191.557V18.784ZM195.909 21.328C196.624 21.328 197.264 21.4827 197.829 21.792C198.395 22.0907 198.837 22.5013 199.157 23.024C199.488 23.5467 199.653 24.1547 199.653 24.848C199.653 25.5413 199.488 26.1547 199.157 26.688C198.837 27.2107 198.395 27.6267 197.829 27.936C197.275 28.2347 196.635 28.384 195.909 28.384C195.195 28.384 194.549 28.2347 193.973 27.936C193.408 27.6267 192.96 27.2107 192.629 26.688C192.309 26.1547 192.149 25.5413 192.149 24.848C192.149 24.1547 192.309 23.5467 192.629 23.024C192.96 22.5013 193.408 22.0907 193.973 21.792C194.549 21.4827 195.195 21.328 195.909 21.328ZM195.909 23.056C195.568 23.056 195.269 23.1253 195.013 23.264C194.757 23.4027 194.555 23.6053 194.405 23.872C194.256 24.1387 194.181 24.464 194.181 24.848C194.181 25.2213 194.256 25.5467 194.405 25.824C194.555 26.0907 194.757 26.2987 195.013 26.448C195.269 26.5867 195.568 26.656 195.909 26.656C196.24 26.656 196.533 26.5867 196.789 26.448C197.045 26.2987 197.248 26.0907 197.397 25.824C197.547 25.5467 197.621 25.2213 197.621 24.848C197.621 24.464 197.547 24.1387 197.397 23.872C197.248 23.6053 197.045 23.4027 196.789 23.264C196.533 23.1253 196.24 23.056 195.909 23.056ZM194.821 16.848H196.965V19.44H194.821V16.848ZM216.164 16.592H218.292V31.408H216.164V16.592ZM211.796 18.128H213.892C213.892 19.2587 213.78 20.3413 213.556 21.376C213.343 22.4 212.98 23.3653 212.468 24.272C211.967 25.1787 211.273 26.0213 210.388 26.8C209.513 27.568 208.42 28.272 207.108 28.912L205.988 27.232C207.417 26.5387 208.553 25.776 209.396 24.944C210.249 24.1013 210.863 23.152 211.236 22.096C211.609 21.0293 211.796 19.8347 211.796 18.512V18.128ZM206.788 18.128H212.788V19.824H206.788V18.128Z" fill="#1A1A1A"/>
<defs>
<clipPath id="clip0_446_936">
<rect width="28" height="28" fill="white" transform="translate(67.5 10)"/>
</clipPath>
</defs>
</svg>
