<svg width="96" height="96" viewBox="0 0 96 96" fill="none" xmlns="http://www.w3.org/2000/svg">
<circle cx="48" cy="48" r="48" fill="#5B86E5"/>
<path d="M48 72C61.2548 72 72 61.2548 72 48C72 34.7452 61.2548 24 48 24C34.7452 24 24 34.7452 24 48C24 61.2548 34.7452 72 48 72Z" stroke="white" stroke-width="4" stroke-miterlimit="10" stroke-linecap="round" stroke-linejoin="round"/>
<path d="M48.0001 54.1592C40.5665 54.1592 34.1948 58.407 31.0089 64.7786C35.2567 69.2388 41.416 71.7875 48.0001 71.7875C54.5842 71.7875 60.7435 69.0264 64.9912 64.7786C61.8054 58.6194 55.4337 54.1592 48.0001 54.1592Z" stroke="white" stroke-width="4" stroke-miterlimit="10" stroke-linecap="round" stroke-linejoin="round"/>
<path d="M47.9999 48.6373C52.2227 48.6373 55.6459 45.214 55.6459 40.9912C55.6459 36.7685 52.2227 33.3452 47.9999 33.3452C43.7771 33.3452 40.3539 36.7685 40.3539 40.9912C40.3539 45.214 43.7771 48.6373 47.9999 48.6373Z" stroke="white" stroke-width="4" stroke-miterlimit="10" stroke-linecap="round" stroke-linejoin="round"/>
</svg>
