<svg width="17" height="16" viewBox="0 0 17 16" fill="none" xmlns="http://www.w3.org/2000/svg">
<path d="M9.771 15.8505C9.66115 15.8504 9.55353 15.8195 9.46043 15.7612C9.36732 15.7029 9.29248 15.6196 9.24444 15.5208L6.49053 9.85948L0.829204 7.10596C0.727219 7.05625 0.641861 6.978 0.583492 6.88071C0.525122 6.78342 0.496253 6.67128 0.50039 6.5579C0.504526 6.44452 0.54149 6.33478 0.606793 6.242C0.672097 6.14923 0.762931 6.07741 0.868266 6.03526L15.396 0.191899C15.5026 0.148932 15.6195 0.138265 15.7321 0.161225C15.8447 0.184186 15.9481 0.239761 16.0294 0.321031C16.1106 0.402302 16.1662 0.50568 16.1892 0.618297C16.2121 0.730915 16.2015 0.847798 16.1585 0.954399L10.3148 15.4833C10.2724 15.5886 10.2004 15.6792 10.1074 15.7444C10.0145 15.8095 9.90471 15.8462 9.79131 15.8501L9.771 15.8505ZM2.52959 6.63174L7.18506 8.89737C7.30306 8.95475 7.39839 9.05007 7.45577 9.16807L9.72139 13.8235L14.5569 1.79034L2.52959 6.63174Z" fill="white"/>
<path d="M6.92883 10.0074C6.81294 10.0073 6.69965 9.97296 6.60331 9.90855C6.50696 9.84414 6.43188 9.7526 6.38756 9.64552C6.34324 9.53844 6.33167 9.42062 6.35431 9.30696C6.37695 9.1933 6.43279 9.08891 6.51477 9.00698L15.2003 0.321436C15.2547 0.267035 15.3194 0.223887 15.3905 0.194455C15.4616 0.165023 15.5378 0.149884 15.6147 0.149902C15.6917 0.14992 15.7679 0.165095 15.8389 0.194561C15.91 0.224026 15.9746 0.267205 16.029 0.321632C16.0834 0.376058 16.1266 0.440667 16.156 0.511769C16.1854 0.582872 16.2006 0.659075 16.2006 0.736028C16.2005 0.812981 16.1854 0.889176 16.1559 0.960265C16.1264 1.03135 16.0833 1.09594 16.0288 1.15034L7.34328 9.83745C7.23309 9.94675 7.08403 10.0079 6.92883 10.0074Z" fill="white"/>
</svg>
