<svg width="86" height="86" viewBox="0 0 86 86" fill="none" xmlns="http://www.w3.org/2000/svg">
<rect width="86" height="86" rx="43" fill="#BDCFF5"/>
<circle cx="43" cy="43" r="25" fill="white"/>
<path d="M43 10C36.4732 10 30.093 11.9354 24.6662 15.5615C19.2394 19.1876 15.0097 24.3415 12.512 30.3714C10.0143 36.4014 9.36079 43.0366 10.6341 49.438C11.9074 55.8394 15.0504 61.7194 19.6655 66.3345C24.2806 70.9497 30.1607 74.0926 36.562 75.3659C42.9634 76.6392 49.5986 75.9857 55.6286 73.488C61.6585 70.9903 66.8124 66.7606 70.4385 61.3338C74.0646 55.907 76 49.5268 76 43C76 34.2479 72.5232 25.8542 66.3345 19.6655C60.1458 13.4768 51.7522 10 43 10ZM60.121 36.121L39.121 57.121C38.5584 57.6834 37.7955 57.9994 37 57.9994C36.2045 57.9994 35.4416 57.6834 34.879 57.121L25.879 48.121C25.3325 47.5552 25.0302 46.7974 25.037 46.0108C25.0438 45.2242 25.3593 44.4718 25.9156 43.9155C26.4718 43.3593 27.2242 43.0438 28.0108 43.037C28.7974 43.0301 29.5552 43.3325 30.121 43.879L37 50.758L55.879 31.879C56.4448 31.3325 57.2026 31.0301 57.9892 31.037C58.7758 31.0438 59.5282 31.3593 60.0845 31.9155C60.6407 32.4718 60.9562 33.2242 60.963 34.0108C60.9699 34.7974 60.6675 35.5552 60.121 36.121Z" fill="#2764EB"/>
</svg>
