<svg width="96" height="96" viewBox="0 0 96 96" fill="none" xmlns="http://www.w3.org/2000/svg">
<circle cx="48" cy="48" r="45.5" stroke="#5B86E5" stroke-width="5"/>
<path d="M47.5 72C60.7548 72 71.5 61.2548 71.5 48C71.5 34.7452 60.7548 24 47.5 24C34.2452 24 23.5 34.7452 23.5 48C23.5 61.2548 34.2452 72 47.5 72Z" stroke="#5B86E5" stroke-width="4" stroke-miterlimit="10" stroke-linecap="round" stroke-linejoin="round"/>
<path d="M47.5002 54.1592C40.0666 54.1592 33.6949 58.407 30.509 64.7786C34.7568 69.2388 40.9161 71.7875 47.5002 71.7875C54.0843 71.7875 60.2435 69.0264 64.4913 64.7786C61.3055 58.6194 54.9338 54.1592 47.5002 54.1592Z" stroke="#5B86E5" stroke-width="4" stroke-miterlimit="10" stroke-linecap="round" stroke-linejoin="round"/>
<path d="M47.4998 48.6373C51.7226 48.6373 55.1458 45.214 55.1458 40.9912C55.1458 36.7685 51.7226 33.3452 47.4998 33.3452C43.277 33.3452 39.8538 36.7685 39.8538 40.9912C39.8538 45.214 43.277 48.6373 47.4998 48.6373Z" stroke="#5B86E5" stroke-width="4" stroke-miterlimit="10" stroke-linecap="round" stroke-linejoin="round"/>
</svg>
