<svg width="96" height="96" viewBox="0 0 96 96" fill="none" xmlns="http://www.w3.org/2000/svg">
<circle cx="48" cy="48" r="45.5" stroke="#5B86E5" stroke-width="5"/>
<g clip-path="url(#clip0_524_1134)">
<path d="M57 37.875V34.125C57 33.5063 56.4937 33 55.875 33H52.125C51.5063 33 51 33.5063 51 34.125V37.875C51 38.4937 51.5063 39 52.125 39H55.875C56.4937 39 57 38.4937 57 37.875ZM43.875 39H40.125C39.5063 39 39 38.4937 39 37.875V34.125C39 33.5063 39.5063 33 40.125 33H43.875C44.4937 33 45 33.5063 45 34.125V37.875C45 38.4937 44.4937 39 43.875 39ZM55.875 48H52.125C51.5063 48 51 47.4937 51 46.875V43.125C51 42.5063 51.5063 42 52.125 42H55.875C56.4937 42 57 42.5063 57 43.125V46.875C57 47.4937 56.4937 48 55.875 48ZM43.875 48H40.125C39.5063 48 39 47.4937 39 46.875V43.125C39 42.5063 39.5063 42 40.125 42H43.875C44.4937 42 45 42.5063 45 43.125V46.875C45 47.4937 44.4937 48 43.875 48ZM51 55.875V52.125C51 51.5063 51.5063 51 52.125 51H55.875C56.4937 51 57 51.5063 57 52.125V55.875C57 56.4937 56.4937 57 55.875 57H52.125C51.5063 57 51 56.4937 51 55.875ZM43.875 57H40.125C39.5063 57 39 56.4937 39 55.875V52.125C39 51.5063 39.5063 51 40.125 51H43.875C44.4937 51 45 51.5063 45 52.125V55.875C45 56.4937 44.4937 57 43.875 57ZM27 68.625V72H69V68.625C69 68.0063 68.4937 67.5 67.875 67.5H66.0469V26.25C66.0469 25.0031 65.0438 24 63.7969 24H32.2031C30.9562 24 29.9531 25.0031 29.9531 26.25V67.5H28.125C27.5063 67.5 27 68.0063 27 68.625ZM61.5469 67.4062H51V61.125C51 60.5063 50.4937 60 49.875 60H46.125C45.5063 60 45 60.5063 45 61.125V67.4062H34.4531V28.5938L61.5 28.5L61.5469 67.4062Z" fill="#5B86E5"/>
</g>
<defs>
<clipPath id="clip0_524_1134">
<rect width="42" height="48" fill="white" transform="matrix(-1 0 0 1 69 24)"/>
</clipPath>
</defs>
</svg>
