<svg width="28" height="28" viewBox="0 0 28 28" fill="none" xmlns="http://www.w3.org/2000/svg">
<path d="M22.25 13.5417C22.2531 14.7516 21.9705 15.9451 21.425 17.025C20.7782 18.3191 19.7839 19.4076 18.5535 20.1685C17.323 20.9294 15.905 21.3328 14.4583 21.3333C13.2484 21.3365 12.0549 21.0538 10.975 20.5083L5.75 22.25L7.49166 17.025C6.94618 15.9451 6.66351 14.7516 6.66667 13.5417C6.66723 12.095 7.07056 10.677 7.83149 9.44652C8.59242 8.21608 9.68089 7.22179 10.975 6.57502C12.0549 6.02955 13.2484 5.74687 14.4583 5.75003H14.9167C16.8273 5.85544 18.6319 6.66189 19.985 8.01498C21.3381 9.36806 22.1446 11.1727 22.25 13.0833V13.5417Z" fill="#5B86E5" stroke="#5B86E5" stroke-width="1.5" stroke-linecap="round" stroke-linejoin="round"/>
</svg>
