<svg width="48" height="48" viewBox="0 0 48 48" fill="none" xmlns="http://www.w3.org/2000/svg">
<rect width="48" height="48" rx="8" fill="url(#paint0_linear_39_24)"/>
<path d="M14 21.5L15.6012 30.7704M17.0137 38.8098L36.3087 31.6779C37.6803 31.1709 38.5145 29.7348 38.2823 28.28L36.7799 18.866M17.0137 38.8098C15 39.5 7.00003 33.5 7.00003 33.5L15.6012 30.7704M17.0137 38.8098L15.6012 30.7704" stroke="white" stroke-width="2" stroke-linejoin="round"/>
<path d="M26.2147 36.0806L25.1239 29.4075C24.9707 28.4702 25.4977 27.5545 26.3851 27.2161L27.5139 26.7856C28.6905 26.3369 29.984 27.074 30.1976 28.315L31.1156 33.6475" stroke="white" stroke-width="1.5" stroke-linejoin="round"/>
<path d="M24.3077 21.8495C22.3208 24.5501 20.662 25.2828 17.8578 24.9091C16.6263 24.745 15.5727 23.9759 14.8707 22.951L11.5881 18.1581C10.811 17.0234 11.3845 15.4611 12.7112 15.0987L18.7166 13.4583M24.3077 21.8495C28.7206 22.9163 30.6521 22.5061 32.6538 19.1552M24.3077 21.8495C22.1242 18.5725 20.9001 16.7353 18.7166 13.4583M32.6538 19.1552C36.3698 20.1342 38.1946 19.8118 40.0787 17.6489C40.6633 16.9778 40.6171 15.9818 40.0615 15.2864C38.6746 13.5506 37.6134 12.2226 36.2699 10.5412C35.5226 9.60589 34.2905 9.20428 33.1356 9.51975L26.8775 11.2291M32.6538 19.1552L26.8775 11.2291M18.7166 13.4583L26.8775 11.2291" stroke="white" stroke-width="2" stroke-linejoin="round"/>
<defs>
<linearGradient id="paint0_linear_39_24" x1="38" y1="1.25418e-06" x2="12" y2="49.5" gradientUnits="userSpaceOnUse">
<stop stop-color="#36D1DC"/>
<stop offset="1" stop-color="#5B86E5"/>
</linearGradient>
</defs>
</svg>
