<svg width="27" height="25" viewBox="0 0 27 25" fill="none" xmlns="http://www.w3.org/2000/svg">
<path d="M6.25022 10.4889L7.45107 17.4417M8.51048 23.4713L22.9817 18.1224C24.0104 17.7422 24.636 16.665 24.4619 15.574L23.3351 8.51342M8.51048 23.4713C7.00022 23.9889 1.00022 19.4889 1.00022 19.4889L7.45107 17.4417M8.51048 23.4713L7.45107 17.4417" stroke="white" stroke-width="1.5" stroke-linejoin="round"/>
<path d="M15.411 21.4245L14.5929 16.4196C14.478 15.7167 14.8732 15.0299 15.5387 14.7761L16.3854 14.4532C17.2678 14.1167 18.238 14.6696 18.3982 15.6003L19.0866 19.5997" stroke="white" stroke-width="1.125" stroke-linejoin="round"/>
<path d="M13.9808 10.7511C12.4906 12.7766 11.2465 13.3261 9.14334 13.0459C8.21975 12.9228 7.4295 12.346 6.903 11.5772L4.44111 7.9826C3.85825 7.13157 4.2884 5.95982 5.28344 5.68802L9.78745 4.45775M13.9808 10.7511C17.2904 11.5512 18.7391 11.2436 20.2404 8.73046M13.9808 10.7511C12.3432 8.29342 11.425 6.91548 9.78745 4.45775M20.2404 8.73046C23.0274 9.4647 24.3959 9.22286 25.809 7.60073C26.2475 7.09736 26.2129 6.3504 25.7961 5.82886C24.7559 4.52701 23.96 3.53094 22.9525 2.26994C22.3919 1.56844 21.4679 1.26724 20.6017 1.50384L15.9081 2.78588M20.2404 8.73046L15.9081 2.78588M9.78745 4.45775L15.9081 2.78588" stroke="white" stroke-width="1.5" stroke-linejoin="round"/>
</svg>
