<svg width="225" height="150" viewBox="0 0 225 150" fill="none" xmlns="http://www.w3.org/2000/svg">
<path d="M85.1869 39.1238L89.8569 66.1624M93.9769 89.6107L150.254 68.8095C154.254 67.3308 156.687 63.142 156.01 58.899L151.628 31.4412M93.9769 89.6107C88.1036 91.6238 64.7703 74.1238 64.7703 74.1238L89.8569 66.1624M93.9769 89.6107L89.8569 66.1624" stroke="white" stroke-width="5.83333" stroke-linejoin="round"/>
<path d="M120.813 81.6509L117.632 62.1875C117.185 59.454 118.722 56.7831 121.31 55.7961L124.603 54.5404C128.034 53.2316 131.807 55.3817 132.43 59.0012L135.107 74.5543" stroke="white" stroke-width="4.375" stroke-linejoin="round"/>
<path d="M115.251 40.1434C109.456 48.0202 104.618 50.1572 96.4387 49.0672C92.847 48.5886 89.7737 46.3455 87.7263 43.356L78.1522 29.3768C75.8856 26.0673 77.5584 21.5104 81.4279 20.4535L98.9435 15.6691M115.251 40.1434C128.122 43.2549 133.756 42.0583 139.594 32.2852M115.251 40.1434C108.882 30.5856 105.312 25.2269 98.9435 15.6691M139.594 32.2852C150.432 35.1406 155.754 34.2001 161.25 27.8918C162.955 25.9342 162.82 23.0294 161.2 21.0012C157.154 15.9384 154.059 12.0648 150.141 7.16092C147.961 4.43286 144.368 3.26152 140.999 4.18164L122.746 9.16736M139.594 32.2852L122.746 9.16736M98.9435 15.6691L122.746 9.16736" stroke="white" stroke-width="5.83333" stroke-linejoin="round"/>
<path d="M6.216 133.813H15.736V119.477H18.984V123.537H21.28V126.561H18.984V140.673H3.08V131.937H6.216V133.813ZM1.456 119.589H13.72V122.473H11.928V127.457H13.72V130.313H1.456V127.457H3.416V122.473H1.456V119.589ZM15.736 138.069V136.445H6.216V138.069H15.736ZM6.412 127.457H8.932V122.473H6.412V127.457ZM24.0122 123.761H37.1442L37.3682 122.445H24.0122V119.589H40.4762V122.557L39.3282 128.997H41.8762V131.685H22.6122V128.997H29.2762V127.317H32.5242V128.997H36.2202L36.6682 126.393H24.0122V123.761ZM36.9482 132.945C37.5082 132.945 38.0309 133.039 38.5162 133.225C39.0015 133.412 39.4215 133.673 39.7762 134.009C40.1309 134.345 40.4109 134.756 40.6162 135.241C40.8215 135.708 40.9242 136.231 40.9242 136.809C40.9242 137.388 40.8215 137.911 40.6162 138.377C40.4109 138.844 40.1309 139.255 39.7762 139.609C39.4215 139.945 39.0015 140.207 38.5162 140.393C38.0309 140.58 37.5082 140.673 36.9482 140.673H27.5402C26.9802 140.673 26.4575 140.58 25.9722 140.393C25.4869 140.207 25.0669 139.945 24.7122 139.609C24.3575 139.255 24.0775 138.844 23.8722 138.377C23.6669 137.911 23.5642 137.388 23.5642 136.809C23.5642 136.231 23.6669 135.708 23.8722 135.241C24.0775 134.756 24.3575 134.345 24.7122 134.009C25.0669 133.673 25.4869 133.412 25.9722 133.225C26.4575 133.039 26.9802 132.945 27.5402 132.945H36.9482ZM27.5402 135.717C27.2042 135.717 26.9242 135.82 26.7002 136.025C26.4762 136.231 26.3642 136.492 26.3642 136.809C26.3642 137.127 26.4762 137.397 26.7002 137.621C26.9242 137.827 27.2042 137.929 27.5402 137.929H36.9482C37.2842 137.929 37.5642 137.827 37.7882 137.621C38.0122 137.397 38.1242 137.127 38.1242 136.809C38.1242 136.492 38.0122 136.231 37.7882 136.025C37.5642 135.82 37.2842 135.717 36.9482 135.717H27.5402ZM44.5524 134.933H47.7444V137.985H44.5524V134.933ZM44.5524 125.777H47.7444V128.829H44.5524V125.777ZM71.0286 137.509V140.589H59.3806V119.589H62.8526V137.509H71.0286ZM76.4606 126.617H78.7566V129.557H76.4606V140.673H73.2966V119.477H76.4606V126.617ZM84.7368 137.845H94.8168V119.477H97.9528V124.405H100.249V127.429H97.9528V140.673H81.6008V133.253H84.7368V137.845ZM91.8488 119.589V130.817H80.6488V119.589H91.8488ZM84.0648 127.821H88.4328V122.613H84.0648V127.821ZM108.525 119.589C109.197 119.589 109.832 119.72 110.429 119.981C111.026 120.243 111.549 120.597 111.997 121.045C112.445 121.475 112.79 121.988 113.033 122.585C113.294 123.183 113.425 123.817 113.425 124.489V127.569C113.425 128.241 113.294 128.876 113.033 129.473C112.79 130.071 112.445 130.593 111.997 131.041C111.549 131.489 111.026 131.844 110.429 132.105C109.832 132.348 109.197 132.469 108.525 132.469H106.929C106.257 132.469 105.622 132.348 105.025 132.105C104.428 131.844 103.905 131.489 103.457 131.041C103.009 130.593 102.654 130.071 102.393 129.473C102.15 128.876 102.029 128.241 102.029 127.569V124.489C102.029 123.817 102.15 123.183 102.393 122.585C102.654 121.988 103.009 121.475 103.457 121.045C103.905 120.597 104.428 120.243 105.025 119.981C105.622 119.72 106.257 119.589 106.929 119.589H108.525ZM116.897 137.649V119.477H120.061V140.673H101.581V137.649H116.897ZM106.929 122.697C106.444 122.697 106.024 122.875 105.669 123.229C105.314 123.565 105.137 123.985 105.137 124.489V127.569C105.137 128.073 105.314 128.503 105.669 128.857C106.024 129.193 106.444 129.361 106.929 129.361H108.525C109.01 129.361 109.43 129.193 109.785 128.857C110.14 128.503 110.317 128.073 110.317 127.569V124.489C110.317 123.985 110.14 123.565 109.785 123.229C109.43 122.875 109.01 122.697 108.525 122.697H106.929ZM136.564 133.813H146.084V119.477H149.332V123.537H151.628V126.561H149.332V140.673H133.428V131.937H136.564V133.813ZM131.804 119.589H144.068V122.473H142.276V127.457H144.068V130.313H131.804V127.457H133.764V122.473H131.804V119.589ZM146.084 138.069V136.445H136.564V138.069H146.084ZM136.76 127.457H139.28V122.473H136.76V127.457ZM171.44 119.477V140.673H154.472V131.937H157.608V133.897H168.304V126.533H164.328C164.253 127.075 164.048 127.588 163.712 128.073C163.395 128.54 162.984 128.941 162.48 129.277C161.995 129.613 161.435 129.875 160.8 130.061C160.165 130.248 159.512 130.341 158.84 130.341C158.093 130.341 157.393 130.239 156.74 130.033C156.087 129.809 155.517 129.511 155.032 129.137C154.547 128.745 154.164 128.288 153.884 127.765C153.604 127.243 153.464 126.673 153.464 126.057V123.929C153.464 123.22 153.623 122.595 153.94 122.053C154.257 121.512 154.668 121.064 155.172 120.709C155.676 120.336 156.236 120.056 156.852 119.869C157.487 119.664 158.112 119.561 158.728 119.561H158.868C159.577 119.561 160.249 119.664 160.884 119.869C161.519 120.056 162.079 120.327 162.564 120.681C163.068 121.017 163.469 121.428 163.768 121.913C164.085 122.399 164.272 122.921 164.328 123.481H168.304V119.477H171.44ZM161.22 124.517C161.22 124.219 161.155 123.948 161.024 123.705C160.912 123.463 160.753 123.248 160.548 123.061C160.343 122.875 160.1 122.735 159.82 122.641C159.54 122.529 159.241 122.473 158.924 122.473C158.607 122.473 158.308 122.529 158.028 122.641C157.748 122.735 157.505 122.875 157.3 123.061C157.095 123.248 156.927 123.463 156.796 123.705C156.684 123.948 156.628 124.219 156.628 124.517V125.609C156.628 125.889 156.684 126.151 156.796 126.393C156.927 126.636 157.095 126.851 157.3 127.037C157.505 127.224 157.748 127.373 158.028 127.485C158.308 127.597 158.607 127.653 158.924 127.653C159.241 127.653 159.54 127.597 159.82 127.485C160.1 127.373 160.343 127.224 160.548 127.037C160.753 126.851 160.912 126.636 161.024 126.393C161.155 126.151 161.22 125.889 161.22 125.609V124.517ZM168.304 136.473H157.608V138.069H168.304V136.473ZM188.559 128.661V124.629H191.835V128.661H196.231L197.211 122.613H184.219V119.589H200.571V122.613L199.591 128.661H202.111V131.125H182.847V128.661H188.559ZM197.183 132.665C197.743 132.665 198.265 132.768 198.751 132.973C199.236 133.16 199.656 133.431 200.011 133.785C200.365 134.121 200.645 134.541 200.851 135.045C201.056 135.531 201.159 136.072 201.159 136.669C201.159 137.267 201.056 137.817 200.851 138.321C200.645 138.807 200.365 139.227 200.011 139.581C199.656 139.917 199.236 140.179 198.751 140.365C198.265 140.571 197.743 140.673 197.183 140.673H187.775C187.215 140.673 186.692 140.571 186.207 140.365C185.721 140.179 185.301 139.917 184.947 139.581C184.592 139.227 184.312 138.807 184.107 138.321C183.901 137.817 183.799 137.267 183.799 136.669C183.799 136.072 183.901 135.531 184.107 135.045C184.312 134.541 184.592 134.121 184.947 133.785C185.301 133.431 185.721 133.16 186.207 132.973C186.692 132.768 187.215 132.665 187.775 132.665H197.183ZM187.775 135.493C187.513 135.493 187.289 135.605 187.103 135.829C186.916 136.053 186.823 136.333 186.823 136.669C186.823 137.005 186.916 137.285 187.103 137.509C187.289 137.733 187.513 137.845 187.775 137.845H197.183C197.444 137.845 197.668 137.733 197.855 137.509C198.041 137.285 198.135 137.005 198.135 136.669C198.135 136.333 198.041 136.053 197.855 135.829C197.668 135.605 197.444 135.493 197.183 135.493H187.775ZM206.495 140.673V133.841H209.659V137.761H218.955V119.477H222.203V124.881H224.499V127.569H222.203V140.673H206.495ZM204.339 119.589H214.811V122.613L213.831 130.985H210.443L211.423 122.613H204.339V119.589Z" fill="white"/>
</svg>
